<svg width="30" height="30" viewBox="0 0 30 30" fill="none" xmlns="http://www.w3.org/2000/svg">
<path d="M11.25 16.25L18.75 16.25" stroke="#33363F" stroke-width="2" stroke-linecap="round"/>
<path d="M11.25 11.25L16.25 11.25" stroke="#33363F" stroke-width="2" stroke-linecap="round"/>
<path d="M11.25 21.25L16.25 21.25" stroke="#33363F" stroke-width="2" stroke-linecap="round"/>
<path d="M23.75 16.25V20.25C23.75 23.0784 23.75 24.4926 22.8713 25.3713C21.9926 26.25 20.5784 26.25 17.75 26.25H12.25C9.42157 26.25 8.00736 26.25 7.12868 25.3713C6.25 24.4926 6.25 23.0784 6.25 20.25V9.75C6.25 6.92157 6.25 5.50736 7.12868 4.62868C8.00736 3.75 9.42157 3.75 12.25 3.75H13.75" stroke="#33363F" stroke-width="2"/>
<path d="M22.5 3.75L22.5 11.25" stroke="#33363F" stroke-width="2" stroke-linecap="round"/>
<path d="M26.25 7.5L18.75 7.5" stroke="#33363F" stroke-width="2" stroke-linecap="round"/>
</svg>
