<svg width="40" height="41" viewBox="0 0 40 41" fill="none" xmlns="http://www.w3.org/2000/svg">
<path d="M2.22222 22.8068H15.5556C16.7778 22.8068 17.7778 21.8097 17.7778 20.5909V2.86363C17.7778 1.64488 16.7778 0.64772 15.5556 0.64772H2.22222C1 0.64772 0 1.64488 0 2.86363V20.5909C0 21.8097 1 22.8068 2.22222 22.8068ZM2.22222 40.5341H15.5556C16.7778 40.5341 17.7778 39.5369 17.7778 38.3182V29.4545C17.7778 28.2358 16.7778 27.2386 15.5556 27.2386H2.22222C1 27.2386 0 28.2358 0 29.4545V38.3182C0 39.5369 1 40.5341 2.22222 40.5341ZM24.4444 40.5341H37.7778C39 40.5341 40 39.5369 40 38.3182V20.5909C40 19.3722 39 18.375 37.7778 18.375H24.4444C23.2222 18.375 22.2222 19.3722 22.2222 20.5909V38.3182C22.2222 39.5369 23.2222 40.5341 24.4444 40.5341ZM22.2222 2.86363V11.7273C22.2222 12.946 23.2222 13.9432 24.4444 13.9432H37.7778C39 13.9432 40 12.946 40 11.7273V2.86363C40 1.64488 39 0.64772 37.7778 0.64772H24.4444C23.2222 0.64772 22.2222 1.64488 22.2222 2.86363Z" fill="#76A5FF"/>
</svg>
