<svg width="43" height="41" viewBox="0 0 43 41" fill="none" xmlns="http://www.w3.org/2000/svg">
<path d="M21.4998 4.84981C19.9907 4.84981 18.7059 5.3624 17.6455 6.38756C16.585 7.41272 16.0548 8.65475 16.0548 10.1136C16.0548 11.5725 16.585 12.8145 17.6455 13.8397C18.7059 14.8649 19.9907 15.3775 21.4998 15.3775C23.0088 15.3775 24.2936 14.8649 25.354 13.8397C26.4145 12.8145 26.9447 11.5725 26.9447 10.1136C26.9447 8.65475 26.4145 7.41272 25.354 6.38756C24.2936 5.3624 23.0088 4.84981 21.4998 4.84981ZM21.5609 27.5611C17.9718 27.5611 14.4234 28.2117 10.9158 29.5129C7.40818 30.8141 5.65438 31.9378 5.65438 32.8841V35.6047H37.4675V32.8841C37.4675 31.9378 35.7137 30.8141 32.2061 29.5129C28.6985 28.2117 25.1501 27.5611 21.5609 27.5611ZM21.4998 0C24.3956 0 26.8631 0.985735 28.9024 2.9572C30.9417 4.92867 31.9614 7.31415 31.9614 10.1136C31.9614 12.9131 30.9417 15.2986 28.9024 17.2701C26.8631 19.2415 24.3956 20.2273 21.4998 20.2273C18.604 20.2273 16.1364 19.2415 14.0971 17.2701C12.0578 15.2986 11.0381 12.9131 11.0381 10.1136C11.0381 7.31415 12.0578 4.92867 14.0971 2.9572C16.1364 0.985735 18.604 0 21.4998 0ZM21.4998 22.7113C24.0693 22.7113 26.9039 23.0662 30.0037 23.7759C33.1034 24.4856 35.938 25.6488 38.5075 27.2654C41.0771 28.882 42.3618 30.7549 42.3618 32.8841V40.4545H0.637695V32.8841C0.637695 30.7549 1.92246 28.882 4.49198 27.2654C7.0615 25.6488 9.89613 24.4856 12.9959 23.7759C16.0956 23.0662 18.9302 22.7113 21.4998 22.7113Z" fill="#76A5FF"/>
</svg>
